<?xml version="1.0" standalone="no"?>
<!DOCTYPE svg PUBLIC "-//W3C//DTD SVG 20010904//EN"
 "http://www.w3.org/TR/2001/REC-SVG-20010904/DTD/svg10.dtd">
<svg version="1.0" xmlns="http://www.w3.org/2000/svg"
 width="236.000000pt" height="354.000000pt" viewBox="0 0 236.000000 354.000000"
 preserveAspectRatio="xMidYMid meet">

<g transform="translate(0.000000,354.000000) scale(0.100000,-0.100000)"
fill="#000000" stroke="none">
<path d="M1665 3111 c-35 -9 -84 -52 -110 -98 -10 -18 -22 -30 -27 -27 -14 9
-22 -28 -9 -48 6 -10 9 -23 6 -28 -4 -6 -1 -10 4 -10 6 0 11 -5 11 -11 0 -14
25 -39 39 -39 6 0 11 -7 11 -15 0 -8 9 -15 20 -15 11 0 20 -7 20 -15 0 -8 5
-15 11 -15 6 0 20 -11 31 -25 11 -14 24 -25 30 -25 6 0 18 -8 27 -19 79 -91
181 52 150 211 -6 32 -18 63 -25 69 -8 6 -14 17 -14 25 0 7 -9 18 -20 24 -11
6 -20 17 -20 24 0 9 -17 16 -45 20 -25 4 -45 11 -45 17 0 10 -2 10 -45 0z"/>
<path d="M600 2890 c0 -5 -5 -9 -12 -7 -7 1 -17 -8 -23 -20 -5 -13 -18 -23
-27 -23 -11 0 -19 -8 -19 -20 -3 -36 -4 -41 -15 -48 -14 -9 -19 -149 -6 -165
5 -7 17 -34 27 -60 15 -41 26 -53 62 -70 l44 -22 37 20 c20 11 37 27 37 35 0
33 38 121 55 130 11 6 17 17 14 25 -4 9 -1 22 6 29 6 8 13 34 16 58 4 40 2 46
-38 87 -24 24 -53 47 -66 52 -31 12 -92 11 -92 -1z"/>
<path d="M1355 2544 c-9 -10 -15 -34 -15 -67 l0 -52 93 -61 c50 -34 98 -64
104 -68 7 -4 23 4 37 18 21 20 24 31 19 63 -3 21 -12 45 -19 54 -8 8 -14 20
-14 26 0 6 -14 14 -30 18 -17 4 -38 18 -47 31 -29 45 -100 66 -128 38z"/>
<path d="M1012 2432 c-21 -19 -32 -38 -32 -55 0 -15 -11 -50 -24 -79 -13 -29
-27 -61 -30 -71 -8 -24 29 -64 71 -78 29 -9 37 -8 53 6 10 9 20 26 23 38 3 12
16 49 30 83 l24 61 -19 44 c-21 45 -46 79 -58 79 -3 0 -21 -13 -38 -28z"/>
<path d="M1940 2262 c0 -5 -9 -18 -21 -30 -11 -12 -18 -26 -15 -31 7 -10 -86
-41 -124 -41 -35 0 -61 -10 -55 -20 3 -4 -2 -13 -10 -20 -20 -16 -19 -30 1
-30 26 0 -46 -76 -78 -83 -30 -7 -39 -27 -12 -27 13 0 14 -3 5 -13 -6 -8 -8
-17 -5 -20 4 -3 -5 -12 -20 -18 -14 -7 -26 -16 -26 -20 0 -5 -8 -5 -17 -2 -12
5 -15 2 -10 -10 5 -14 2 -16 -19 -11 -17 4 -29 2 -34 -7 -7 -10 -11 -10 -24 0
-13 11 -19 11 -32 1 -12 -11 -18 -11 -31 2 -14 14 -10 21 36 65 46 45 63 73
44 73 -5 0 -34 -16 -66 -35 -32 -19 -65 -35 -74 -35 -8 0 -23 -10 -33 -23 -10
-12 -35 -28 -56 -36 -22 -7 -48 -22 -59 -32 -11 -10 -45 -30 -75 -44 -30 -15
-77 -39 -105 -55 -27 -16 -56 -29 -64 -29 -8 -1 -22 -8 -32 -16 -15 -15 -17
-13 -21 15 -5 36 -6 35 97 89 91 48 120 71 91 71 -9 0 -24 7 -33 16 -14 14
-14 16 3 30 18 13 17 14 -9 8 -21 -5 -34 -1 -52 16 -20 19 -31 21 -79 17 -31
-3 -56 -1 -56 4 0 5 -18 9 -41 9 -23 0 -47 7 -56 15 -9 9 -24 13 -37 10 -11
-2 -16 -2 -9 1 7 3 9 12 6 19 -4 11 -10 12 -24 4 -13 -6 -19 -6 -19 1 0 5 5
10 10 10 6 0 10 4 10 9 0 10 -10 14 -62 25 -23 5 -26 10 -19 28 9 24 3 68 -9
68 -12 0 -23 -38 -15 -50 3 -5 -6 -15 -20 -22 -24 -11 -25 -16 -20 -50 5 -27
3 -38 -5 -38 -8 0 -10 -10 -7 -27 5 -28 -10 -73 -25 -73 -4 0 -8 -9 -8 -20 0
-11 -7 -20 -15 -20 -8 0 -15 -7 -15 -15 0 -9 -7 -18 -15 -21 -8 -4 -15 -19
-15 -34 0 -20 -6 -31 -20 -35 -11 -4 -18 -11 -15 -16 4 -5 2 -9 -2 -9 -5 0 -9
-16 -10 -36 -1 -19 -8 -43 -16 -52 -14 -17 -39 -123 -31 -131 2 -3 34 6 70 19
59 20 67 21 81 7 8 -8 13 -20 9 -25 -7 -11 -111 -47 -163 -56 -17 -3 -52 -15
-77 -27 -26 -12 -57 -19 -71 -17 -14 3 -33 -1 -42 -8 -11 -8 -13 -13 -5 -14 6
0 12 -4 12 -10 0 -5 -7 -7 -15 -4 -8 4 -15 1 -15 -4 0 -6 10 -9 22 -6 13 3 44
9 70 14 26 5 63 16 84 25 44 18 49 19 37 3 -15 -21 -7 -58 16 -74 12 -9 19
-20 16 -25 -4 -5 -3 -15 2 -21 4 -7 8 -15 9 -18 1 -3 5 -20 9 -37 4 -18 11
-33 15 -33 5 0 11 -14 15 -30 8 -37 39 -71 80 -89 30 -13 137 -33 185 -34 43
0 130 22 155 40 29 21 31 38 8 78 -13 23 -17 59 -17 161 -1 116 1 134 18 153
24 26 66 27 98 1 26 -20 58 -99 58 -143 0 -13 8 -31 18 -40 24 -22 27 -21 29
3 3 42 73 105 73 66 0 -13 20 -26 41 -26 14 0 11 27 -6 44 -8 8 -12 21 -9 30
4 11 0 13 -15 9 -14 -4 -21 -1 -21 9 0 23 30 78 42 78 6 0 3 9 -7 20 -20 23
-29 67 -14 75 5 4 12 -1 15 -9 3 -9 10 -14 14 -11 14 9 40 -37 40 -69 0 -17
-10 -40 -22 -54 -22 -23 -22 -24 -3 -18 11 3 43 6 70 7 28 1 59 6 69 12 15 7
18 6 13 -6 -3 -8 0 -20 6 -27 9 -10 9 -14 -1 -17 -6 -3 -10 -9 -6 -14 3 -5 -4
-9 -14 -9 -22 0 -37 -26 -21 -35 12 -8 49 4 49 16 0 5 6 9 14 9 7 0 25 11 40
25 24 22 25 25 9 33 -10 5 -24 8 -31 6 -7 -1 -8 0 -2 3 5 2 7 16 4 29 -4 14
-1 31 6 39 11 13 14 13 27 -2 8 -10 12 -12 8 -5 -3 6 -1 12 4 12 6 0 19 27 28
60 10 33 20 60 23 60 3 0 20 -9 38 -20 38 -23 43 -59 11 -93 -11 -12 -18 -30
-15 -39 2 -10 0 -16 -5 -12 -15 9 -10 -16 6 -32 21 -21 19 -33 -5 -27 -29 8
-25 -12 6 -26 22 -9 25 -16 20 -37 -4 -15 -14 -33 -21 -41 -23 -23 -18 -43 10
-43 14 0 25 -1 25 -2 -1 -22 -33 -102 -48 -120 -11 -12 -30 -34 -41 -48 -19
-22 -22 -23 -34 -9 -16 21 -57 34 -57 19 0 -6 -4 -9 -9 -6 -5 3 -11 -1 -15 -9
-3 -8 -11 -15 -18 -15 -16 0 -42 -39 -33 -48 4 -4 17 5 29 21 26 33 57 37 51
6 -2 -11 -7 -29 -10 -40 -4 -13 -2 -19 9 -19 9 0 16 -4 16 -9 0 -5 3 -18 7
-28 6 -16 5 -16 -10 -4 -14 11 -18 11 -23 -3 -3 -9 0 -24 7 -33 10 -12 10 -15
2 -9 -26 15 -33 -6 -12 -36 12 -16 22 -42 22 -56 0 -15 5 -36 12 -47 19 -29
20 -54 6 -104 -7 -25 -10 -57 -7 -73 7 -35 -12 -78 -34 -78 -9 0 -25 -9 -35
-20 -10 -11 -22 -17 -26 -14 -5 3 -9 0 -9 -6 0 -6 -10 -8 -24 -4 -13 3 -27 1
-31 -5 -3 -6 -11 -9 -16 -5 -6 3 -19 -2 -29 -11 -16 -14 -23 -15 -34 -6 -11
10 -16 8 -25 -6 -9 -17 -10 -17 -16 0 -9 21 -25 23 -25 3 0 -9 -9 -14 -21 -13
-16 1 -19 6 -14 24 5 21 -20 102 -36 113 -19 14 -26 81 -16 175 9 97 9 101
-14 137 -44 68 -53 50 -56 -116 -2 -99 -8 -160 -17 -180 -8 -17 -17 -44 -21
-60 -5 -23 -8 -27 -16 -15 -5 7 -9 22 -9 31 0 9 -11 25 -26 35 -43 31 -154
139 -154 151 0 6 -8 15 -17 21 -15 8 -16 12 -5 22 6 7 12 29 12 48 0 26 7 41
27 57 23 18 28 29 28 72 0 44 2 49 18 41 9 -5 17 -7 17 -3 0 4 10 -1 22 -12
l21 -19 -19 33 c-21 37 -44 60 -44 45 0 -14 -195 -16 -238 -2 -74 24 -92 31
-87 39 5 8 -75 37 -89 32 -4 -1 -14 2 -20 8 -7 5 -15 7 -18 5 -3 -3 -17 -1
-30 4 -15 6 -29 6 -34 1 -6 -6 -32 -4 -64 5 -61 16 -75 12 -42 -14 l23 -17
-38 3 c-34 4 -36 3 -20 -10 18 -15 24 -33 7 -22 -5 3 -21 -5 -35 -19 -14 -15
-21 -26 -15 -26 5 0 10 -4 10 -10 0 -5 -6 -10 -14 -10 -7 0 -16 -9 -19 -20 -3
-11 -13 -20 -23 -20 -16 0 -16 -1 0 -19 16 -18 16 -20 -4 -34 -20 -14 -21 -22
-19 -137 2 -93 5 -123 16 -127 11 -5 11 -8 -2 -23 -15 -16 -14 -19 11 -38 27
-19 28 -20 11 -46 -16 -23 -16 -26 -1 -26 23 0 11 -24 -15 -30 l-23 -5 25 -14
c40 -21 41 -39 4 -50 -30 -9 -31 -10 -9 -16 12 -4 22 -11 22 -15 0 -7 30 -19
60 -24 8 -1 60 -14 115 -28 140 -37 416 -62 513 -48 96 13 135 35 102 55 -15
9 -12 25 4 25 8 0 20 -13 27 -29 7 -16 16 -28 20 -25 4 2 11 -1 14 -7 12 -18
-36 -59 -77 -65 -53 -9 -48 -20 7 -16 28 3 45 0 45 -7 0 -6 -6 -11 -14 -11 -9
0 -12 -10 -9 -34 2 -19 -1 -37 -7 -41 -5 -3 -10 -16 -10 -29 0 -12 -3 -26 -6
-29 -4 -4 -8 -25 -10 -47 l-4 -40 75 0 c41 0 76 3 77 8 0 4 2 18 3 32 2 14 5
37 8 52 3 15 1 31 -5 34 -6 4 -5 10 3 15 9 6 10 9 2 9 -17 0 -5 72 15 87 9 7
26 13 39 13 23 0 33 19 11 21 -28 1 29 18 64 18 20 1 40 6 43 11 3 6 1 10 -6
10 -7 0 -4 7 7 15 18 14 18 14 -8 15 -14 0 -29 -6 -31 -12 -4 -10 -6 -10 -6 0
-1 13 -41 18 -41 5 0 -5 -13 -8 -30 -8 -16 0 -30 5 -30 11 0 20 36 44 66 44
22 0 26 3 14 10 -10 7 2 9 40 6 30 -2 80 0 110 5 105 17 240 23 240 10 0 -6 7
-11 16 -11 21 0 47 -27 34 -35 -21 -13 -9 -23 40 -35 59 -14 139 -7 220 20 30
10 102 28 160 40 58 12 139 28 180 37 78 17 136 46 145 75 4 11 19 18 47 20
23 2 43 9 46 16 3 10 -4 13 -24 10 -23 -2 -29 1 -30 17 -2 29 -33 95 -45 95
-5 0 -7 5 -4 10 4 6 11 8 16 5 20 -13 30 7 12 27 -17 19 -17 19 12 12 26 -6
28 -5 18 8 -9 10 -10 17 -1 26 8 8 5 18 -11 38 -24 30 -27 46 -8 43 6 -1 24
-1 40 0 23 1 27 5 27 31 0 22 -4 28 -15 24 -8 -4 -13 -10 -10 -14 3 -4 -2 -11
-11 -14 -8 -3 -12 -2 -9 4 3 6 1 10 -5 10 -7 0 -10 7 -7 14 4 9 -2 17 -15 21
-28 9 -88 51 -82 58 3 2 -9 16 -26 30 -16 14 -30 30 -30 34 0 12 109 113 121
113 5 0 18 -9 29 -20 11 -11 30 -20 42 -20 21 0 21 0 2 15 -13 10 -14 14 -5
15 10 0 11 3 2 14 -10 11 -8 15 6 19 15 4 15 5 2 6 -11 1 -18 12 -21 31 -4 24
-1 30 14 30 10 0 18 5 18 10 0 6 -7 10 -15 10 -10 0 -14 7 -11 23 7 34 7 34
16 7 8 -24 8 -24 9 7 1 17 -5 34 -11 36 -10 4 -10 7 -1 14 14 10 11 57 -6 77
-9 11 -8 15 4 20 24 9 18 36 -7 36 l-23 1 22 12 c18 10 20 15 9 30 -7 9 -21
17 -30 17 -10 0 -15 4 -12 9 3 5 16 7 29 5 12 -2 15 -1 7 2 -32 15 -44 74 -14
74 12 0 14 4 7 13 -15 19 -25 67 -14 67 6 0 8 7 5 15 -5 11 -10 13 -19 5 -15
-12 -50 22 -42 42 7 19 -18 39 -31 26 -8 -8 -13 -6 -18 8 -16 49 -36 84 -45
79 -5 -4 -9 1 -9 9 0 9 4 16 8 16 5 0 7 14 4 30 -4 25 -7 28 -18 19 -8 -7 -17
-9 -21 -5 -3 3 -2 6 4 6 19 0 36 56 23 79 -6 12 -15 21 -20 21 -6 0 -10 8 -10
19 0 11 -9 21 -21 24 -12 3 -18 10 -15 16 3 5 0 15 -7 23 -8 7 -12 19 -9 26 2
6 -1 12 -7 12 -6 0 -11 9 -11 20 0 18 -41 46 -61 42 -4 -1 -15 8 -24 18 -19
21 -35 26 -35 12z m210 -276 c0 -3 -4 -8 -10 -11 -5 -3 -10 -1 -10 4 0 6 5 11
10 11 6 0 10 -2 10 -4z m-854 -111 c-23 -17 -36 -19 -36 -6 0 11 18 19 40 20
11 0 10 -3 -4 -14z m164 -20 c-7 -9 -15 -13 -19 -10 -3 3 1 10 9 15 21 14 24
12 10 -5z m-225 -15 c-3 -5 -11 -10 -16 -10 -6 0 -7 5 -4 10 3 6 11 10 16 10
6 0 7 -4 4 -10z m1070 -190 c3 -5 1 -10 -4 -10 -6 0 -11 5 -11 10 0 6 2 10 4
10 3 0 8 -4 11 -10z m-862 -30 c3 -11 1 -18 -4 -14 -5 3 -9 12 -9 20 0 20 7
17 13 -6z m-903 -150 c-10 -18 -40 -40 -56 -40 -4 0 7 14 24 30 37 35 47 38
32 10z m-323 -56 c-3 -3 -12 -4 -19 -1 -8 3 -5 6 6 6 11 1 17 -2 13 -5z m573
-395 c0 -6 -4 -7 -10 -4 -5 3 -10 11 -10 16 0 6 5 7 10 4 6 -3 10 -11 10 -16z
m680 -60 c-7 -11 -14 -18 -17 -15 -8 8 5 36 17 36 7 0 7 -6 0 -21z m795 -99
c3 -5 1 -10 -4 -10 -6 0 -11 5 -11 10 0 6 2 10 4 10 3 0 8 -4 11 -10z m-758
-207 c-9 -9 -19 -14 -23 -11 -10 10 6 28 24 28 15 0 15 -1 -1 -17z m-627 -94
c0 -6 -4 -7 -10 -4 -5 3 -10 11 -10 16 0 6 5 7 10 4 6 -3 10 -11 10 -16z m630
12 c0 -6 -4 -13 -10 -16 -5 -3 -10 1 -10 9 0 9 5 16 10 16 6 0 10 -4 10 -9z
m-637 -58 c-7 -2 -9 -11 -6 -19 3 -8 1 -14 -5 -14 -5 0 -12 7 -16 15 -3 8 -1
15 4 15 6 0 10 8 10 17 0 14 2 15 13 4 9 -10 9 -15 0 -18z m647 8 c0 -12 -20
-25 -27 -18 -7 7 6 27 18 27 5 0 9 -4 9 -9z m7 -38 c-9 -9 -19 -14 -23 -11
-10 10 6 28 24 28 15 0 15 -1 -1 -17z m-682 -13 c3 -5 1 -10 -4 -10 -6 0 -11
5 -11 10 0 6 2 10 4 10 3 0 8 -4 11 -10z m-85 -71 c0 -6 -4 -7 -10 -4 -5 3
-10 11 -10 16 0 6 5 7 10 4 6 -3 10 -11 10 -16z"/>
<path d="M1332 2120 c-40 -17 -79 -30 -86 -30 -7 0 -20 -8 -30 -19 -21 -23 -8
-35 46 -45 25 -4 35 -11 32 -20 -8 -20 -66 -43 -96 -39 -16 2 -28 -1 -28 -7 0
-5 7 -10 16 -10 8 0 12 -4 9 -10 -10 -16 3 -12 49 15 25 14 50 23 60 19 9 -3
16 -2 16 3 0 6 25 18 55 29 31 10 63 27 72 37 16 17 16 17 -3 11 -10 -4 -25
-11 -31 -17 -23 -17 -26 21 -4 52 23 33 27 61 9 61 -7 0 -46 -14 -86 -30z"/>
<path d="M1494 2064 c-20 -21 -21 -34 -4 -34 7 0 33 51 28 54 -2 1 -13 -8 -24
-20z"/>
<path d="M2184 1999 c-3 -6 -1 -16 5 -22 8 -8 11 -5 11 11 0 24 -5 28 -16 11z"/>
<path d="M2294 1844 c-1 -15 4 -24 12 -24 17 0 19 36 2 43 -8 3 -14 -5 -14
-19z"/>
<path d="M2332 1669 c2 -6 8 -10 13 -10 5 0 11 4 13 10 2 6 -4 11 -13 11 -9 0
-15 -5 -13 -11z"/>
<path d="M2346 1591 c-4 -7 -5 -15 -2 -18 9 -9 19 4 14 18 -4 11 -6 11 -12 0z"/>
<path d="M117 1423 c-13 -12 -7 -33 8 -33 8 0 15 9 15 20 0 20 -11 26 -23 13z"/>
<path d="M1460 1419 c0 -5 9 -9 20 -9 11 0 20 2 20 4 0 2 -9 6 -20 9 -11 3
-20 1 -20 -4z"/>
<path d="M75 1410 c3 -5 10 -10 16 -10 5 0 9 5 9 10 0 6 -7 10 -16 10 -8 0
-12 -4 -9 -10z"/>
<path d="M27 1396 c-5 -13 10 -36 24 -36 4 0 10 7 13 16 4 11 2 15 -8 11 -10
-4 -13 -1 -9 9 3 7 1 14 -5 14 -5 0 -12 -6 -15 -14z"/>
<path d="M1430 1371 c0 -6 5 -13 10 -16 6 -4 7 -12 4 -18 -4 -7 1 -5 11 5 9 9
14 21 11 27 -9 13 -36 15 -36 2z"/>
<path d="M95 1360 c-4 -6 3 -10 14 -10 25 0 27 6 6 13 -8 4 -17 2 -20 -3z"/>
<path d="M1131 1103 c-1 -30 -5 -43 -15 -43 -7 0 -19 -7 -26 -15 -10 -13 -10
-19 3 -33 10 -11 13 -27 10 -44 -4 -21 -1 -28 11 -28 21 0 20 -16 -1 -29 -10
-6 -13 -11 -6 -11 7 0 10 -6 7 -13 -8 -21 14 -67 31 -67 11 0 15 11 15 40 0
40 20 84 49 106 23 18 2 36 -34 32 -31 -3 -34 -1 -38 27 -2 16 0 40 6 52 7 16
7 30 -1 45 -9 21 -11 19 -11 -19z m-4 -85 c-3 -8 -6 -5 -6 6 -1 11 2 17 5 13
3 -3 4 -12 1 -19z m18 -128 c3 -5 1 -10 -4 -10 -6 0 -11 5 -11 10 0 6 2 10 4
10 3 0 8 -4 11 -10z"/>
<path d="M890 1086 c0 -22 17 -28 24 -10 9 22 8 24 -9 24 -8 0 -15 -6 -15 -14z"/>
<path d="M860 1058 c-1 -21 -2 -22 -14 -5 -8 10 -20 15 -30 11 -23 -9 -20 -19
14 -56 18 -19 30 -27 29 -18 -3 31 1 39 18 33 13 -5 15 -2 10 11 -4 10 -7 24
-7 32 0 8 -4 14 -10 14 -5 0 -10 -10 -10 -22z"/>
<path d="M2335 1010 c-3 -5 -13 -6 -22 -3 -15 6 -16 5 -3 -9 8 -9 17 -12 18
-7 2 5 10 9 18 9 8 0 14 5 14 10 0 13 -17 13 -25 0z"/>
<path d="M2341 951 c-8 -14 -7 -20 3 -24 9 -4 14 3 14 19 0 29 -4 30 -17 5z"/>
<path d="M1048 928 c-14 -21 -14 -24 11 -45 14 -13 29 -23 32 -23 11 0 -1 64
-14 78 -12 11 -16 9 -29 -10z"/>
<path d="M1852 198 c3 -8 25 -13 54 -14 27 -1 39 0 26 3 -12 2 -20 9 -17 14 4
5 -1 9 -10 9 -9 0 -13 -4 -10 -10 3 -5 1 -10 -4 -10 -6 0 -11 5 -11 10 0 6 -7
10 -16 10 -9 0 -14 -6 -12 -12z"/>
<path d="M1317 123 c-12 -11 -8 -23 8 -23 8 0 15 7 15 15 0 16 -12 20 -23 8z"/>
<path d="M1713 43 c9 -2 25 -2 35 0 9 3 1 5 -18 5 -19 0 -27 -2 -17 -5z"/>
</g>
</svg>
