<svg id="erNODlZETRh1" xmlns="http://www.w3.org/2000/svg" xmlns:xlink="http://www.w3.org/1999/xlink" viewBox="0 0 300 300" shape-rendering="geometricPrecision" text-rendering="geometricPrecision" project-id="236d9ee2b4a643bf870a81aced72d86f" export-id="724cd82a15464e429bfb0857550dd9c2" cached="false"><path d="M19.137232,15.055009L29.559931,43.42791l8.68558-27.793863q139.54835-57.32484,95.541401,63.694268C89.779963,200.347423,-23.132602,207.295889,70.092644,226.404169s151.129126,15.055009,142.443544-45.165026-8.106544-105.9641-35.321367-55.008686-43.427909,100.144761-49.797336,61.957152-17.950203-34.16329,8.106543-67.74754s21.424435-68.905615,56.745802-56.745801s39.953678-9.84366,55.008686,24.319629s25.477706,50.955414,26.635784,73.537927s20.266358,11.001737-7.527504,50.955414-4.053273,48.63926-44.006949,52.113492-49.797335,6.948464-66.010422,3.474232-19.108281-.579038-38.216561-1.158077-49.218298-4.053272-57.324841-9.84366-22.582512-10.422698-22.582512-15.634047-2.316155,1.737117-15.055009-24.898668-30.689053,27.793861-4.05327-35.900406s25.477706-75.275043,38.216559-93.225246s32.426173-28.3729,25.477707-44.006948s20.266357-61.957152-12.159815-15.634048-39.953679,71.800811-45.744065,52.113492q-5.790386-19.687319-5.790386-64.852345Z" transform="translate(6.551266 15.934576)" fill="none" stroke="#3f5787" stroke-width="0.6" stroke-linecap="round"/></svg>
